<svg width="69" height="69" viewBox="0 0 69 69" fill="none" xmlns="http://www.w3.org/2000/svg">
<path fill-rule="evenodd" clip-rule="evenodd" d="M34.5 69C53.5538 69 69 53.5538 69 34.5C69 15.4462 53.5538 0 34.5 0C15.4462 0 0 15.4462 0 34.5C0 53.5538 15.4462 69 34.5 69Z" fill="#F04037" fill-opacity="0.1"/>
<path d="M36.3467 21.8935L44.2134 25.3868C46.48 26.3868 46.48 28.0402 44.2134 29.0402L36.3467 32.5335C35.4534 32.9335 33.9867 32.9335 33.0934 32.5335L25.2267 29.0402C22.96 28.0402 22.96 26.3868 25.2267 25.3868L33.0934 21.8935C33.9867 21.4935 35.4534 21.4935 36.3467 21.8935Z" stroke="#F04037" stroke-width="2" stroke-linecap="round" stroke-linejoin="round"/>
<path d="M23 32.6667C23 33.7867 23.84 35.0801 24.8667 35.5334L33.92 39.5601C34.6133 39.8667 35.4 39.8667 36.08 39.5601L45.1333 35.5334C46.16 35.0801 47 33.7867 47 32.6667" stroke="#F04037" stroke-width="2" stroke-linecap="round" stroke-linejoin="round"/>
<path d="M23 39.3333C23 40.5733 23.7333 41.6933 24.8667 42.1999L33.92 46.2266C34.6133 46.5333 35.4 46.5333 36.08 46.2266L45.1333 42.1999C46.2667 41.6933 47 40.5733 47 39.3333" stroke="#F04037" stroke-width="2" stroke-linecap="round" stroke-linejoin="round"/>
</svg>
