<svg width="69" height="69" viewBox="0 0 69 69" fill="none" xmlns="http://www.w3.org/2000/svg">
<path fill-rule="evenodd" clip-rule="evenodd" d="M34.5 69C53.5538 69 69 53.5538 69 34.5C69 15.4462 53.5538 0 34.5 0C15.4462 0 0 15.4462 0 34.5C0 53.5538 15.4462 69 34.5 69Z" fill="#F04037" fill-opacity="0.1"/>
<path d="M48.3333 38.0001V30.0001C48.3333 23.3334 45.6667 20.6667 39 20.6667H31C24.3333 20.6667 21.6667 23.3334 21.6667 30.0001V38.0001C21.6667 44.6667 24.3333 47.3334 31 47.3334H39C45.6667 47.3334 48.3333 44.6667 48.3333 38.0001Z" stroke="#F04037" stroke-width="2" stroke-linecap="round" stroke-linejoin="round"/>
<path d="M22.36 27.4802H47.64" stroke="#F04037" stroke-width="2" stroke-linecap="round" stroke-linejoin="round"/>
<path d="M30.36 20.8135V27.2935" stroke="#F04037" stroke-width="2" stroke-linecap="round" stroke-linejoin="round"/>
<path d="M39.64 20.8135V26.6935" stroke="#F04037" stroke-width="2" stroke-linecap="round" stroke-linejoin="round"/>
<path d="M32 37.2669V35.6669C32 33.6136 33.4533 32.7736 35.2267 33.8002L36.6133 34.6002L38 35.4002C39.7733 36.4269 39.7733 38.1069 38 39.1336L36.6133 39.9336L35.2267 40.7336C33.4533 41.7602 32 40.9202 32 38.8669V37.2669V37.2669Z" stroke="#F04037" stroke-width="2" stroke-miterlimit="10" stroke-linecap="round" stroke-linejoin="round"/>
</svg>
